<svg xmlns="http://www.w3.org/2000/svg" viewBox="0 0 68.83 68.183"><defs><style>.cls-1{fill:#fff}</style></defs><g id="noun_1781547_cc" transform="translate(0 6.993)"><path id="Path_401" data-name="Path 401" class="cls-1" d="M34.4 68.189a34.477 34.477 0 0 1-23.862-9.542 33.961 33.961 0 0 1-7.567-10.693 33.838 33.838 0 0 1 6.668-37.507 34.695 34.695 0 0 1 37.581-8A34.266 34.266 0 0 1 58.3 9.548a34.01 34.01 0 0 1-9.9 55.712 34.451 34.451 0 0 1-13.343 2.93zm.04-64.528c-.195 0-.4 0-.592.007a30.926 30.926 0 0 0-11.911 2.61A30.687 30.687 0 0 0 5.9 22.778a30.246 30.246 0 0 0 .437 23.691 30.251 30.251 0 0 0 6.769 9.548 30.868 30.868 0 0 0 43.436-.806 30.353 30.353 0 0 0 6.4-9.795 30.2 30.2 0 0 0-7.212-33.231 30.848 30.848 0 0 0-21.288-8.523z" transform="translate(-.006 -7)"/><path id="Path_402" data-name="Path 402" class="cls-1" d="M475.155 278.895a3.076 3.076 0 0 1-1.008-.16 3.537 3.537 0 0 1-.847-.573 2.22 2.22 0 0 1-.585-.839 2.308 2.308 0 0 1-.215-1.052 2.452 2.452 0 0 1 .793-1.838 2.676 2.676 0 0 1 3.7 0 2.463 2.463 0 0 1 .793 1.838 2.326 2.326 0 0 1-.215 1.052 2.217 2.217 0 0 1-.585.839 2.571 2.571 0 0 1-1.831.733zm0-11.526a1.839 1.839 0 0 1-1.848-1.831v-21.507a1.849 1.849 0 0 1 3.7 0v21.507a1.839 1.839 0 0 1-1.852 1.831z" transform="translate(-440.74 -233.067)"/></g></svg>