<svg id="bank" xmlns="http://www.w3.org/2000/svg" viewBox="0 0 84.89 77.491"><defs><style>.cls-1{fill:#cccce3}</style></defs><path id="Rectangle_300" data-name="Rectangle 300" class="cls-1" transform="translate(39.792 38.009)" d="M0 0h5.411v22.637H0z"/><path id="Path_404" data-name="Path 404" class="cls-1" d="M55.96 46.911a2.233 2.233 0 0 0-2.228-2.211h-6.791a2.211 2.211 0 1 0 0 4.422h6.791a2.168 2.168 0 0 0 2.228-2.211z" transform="translate(-7.891 -11.534)"/><path id="Path_405" data-name="Path 405" class="cls-1" d="M46.941 75.722h6.791a2.211 2.211 0 1 0 0-4.422h-6.791a2.211 2.211 0 0 0 0 4.422z" transform="translate(-7.891 -10.128)"/><path id="Rectangle_301" data-name="Rectangle 301" class="cls-1" transform="translate(67.912 38.009)" d="M0 0h5.624v22.637H0z"/><path id="Path_406" data-name="Path 406" class="cls-1" d="M82.66 46.911a2.233 2.233 0 0 0-2.228-2.211h-6.791a2.211 2.211 0 1 0 0 4.422h6.791a2.168 2.168 0 0 0 2.228-2.211z" transform="translate(-6.259 -11.534)"/><path id="Path_407" data-name="Path 407" class="cls-1" d="M73.641 75.722h6.791a2.211 2.211 0 0 0 0-4.422h-6.791a2.211 2.211 0 0 0 0 4.422z" transform="translate(-6.259 -10.128)"/><path id="Rectangle_302" data-name="Rectangle 302" class="cls-1" transform="translate(11.354 38.009)" d="M0 0h5.624v22.637H0z"/><path id="Path_408" data-name="Path 408" class="cls-1" d="M29.26 46.911a2.233 2.233 0 0 0-2.228-2.211h-6.791a2.211 2.211 0 1 0 0 4.422h6.791a2.168 2.168 0 0 0 2.228-2.211z" transform="translate(-9.523 -11.534)"/><path id="Path_409" data-name="Path 409" class="cls-1" d="M20.241 75.722h6.791a2.211 2.211 0 0 0 0-4.422h-6.791a2.211 2.211 0 0 0 0 4.422z" transform="translate(-9.523 -10.128)"/><path id="Rectangle_303" data-name="Rectangle 303" class="cls-1" transform="translate(5.624 26.849)" d="M0 0h73.536v2.211H0z"/><path id="Rectangle_304" data-name="Rectangle 304" class="cls-1" transform="translate(8.489 29.797)" d="M0 0h67.912v2.211H0z"/><path id="Rectangle_305" data-name="Rectangle 305" class="cls-1" transform="translate(5.624 69.595)" d="M0 0h73.536v2.211H0z"/><path id="Rectangle_306" data-name="Rectangle 306" class="cls-1" transform="translate(8.489 66.647)" d="M0 0h67.912v2.211H0z"/><path id="Rectangle_307" data-name="Rectangle 307" class="cls-1" transform="translate(2.653 72.332)" d="M0 0h79.478v2.211H0z"/><path id="Rectangle_308" data-name="Rectangle 308" class="cls-1" transform="translate(0 75.28)" d="M0 0h84.89v2.211H0z"/><path id="Path_410" data-name="Path 410" class="cls-1" d="M52.551 13.2L10 37.1v1.79h84.89V37zm-.212 22.532a8 8 0 1 1 8.067-8 7.9 7.9 0 0 1-8.067 8z" transform="translate(-10 -13.2)"/><path id="Path_411" data-name="Path 411" class="cls-1" d="M49.735 25.232a.8.8 0 0 1 .532-.105 1.593 1.593 0 0 1 1.061.316l.318.316.955-1.474-.318-.211a3.165 3.165 0 0 0-1.167-.421V22.6h-1.7v1.158a2.074 2.074 0 0 0-1.591 2c0 .842.743 1.579 2.122 2.211.318.105.955.421.955.842a.545.545 0 0 1-.212.421 1.543 1.543 0 0 1-.743.211 1.7 1.7 0 0 1-1.273-.421l-.424-.316-.85 1.37.318.211a3.735 3.735 0 0 0 1.486.632v1.053h1.7v-1.054a2.426 2.426 0 0 0 1.061-.737 2.031 2.031 0 0 0 0-2.737 6 6 0 0 0-1.486-.947c-1.061-.421-1.061-.737-1.061-.737a1.124 1.124 0 0 1 .317-.528z" transform="translate(-7.714 -12.703)"/></svg>