<svg xmlns="http://www.w3.org/2000/svg" viewBox="0 0 61.148 58.838"><defs><style>.cls-1{fill:url(#linear-gradient)}</style><linearGradient id="linear-gradient" x1=".5" x2=".5" y2="1" gradientUnits="objectBoundingBox"><stop offset="0" stop-color="#ee1621"/><stop offset="1" stop-color="#fe9100"/></linearGradient></defs><g id="noun_1767927_cc" transform="translate(-9.203 -4.35)"><g id="Group_21" data-name="Group 21" transform="translate(9.203 4.35)"><path id="Path_51" data-name="Path 51" class="cls-1" d="M53.493 4.8c-.893-.9-2.04-.131-32.893-.386a1.2 1.2 0 0 0-1.275 1.275v15.044c-.127-.127-2.04-4.335-6.12-1.785a4.46 4.46 0 0 0-3.187-2.295A6.079 6.079 0 0 0 5.683 17.8c-2.167 1.657-2.932 4.59-1.53 6.5C9 31.315 18.687 45.212 19.2 45.849v16.064a1.2 1.2 0 0 0 1.275 1.275H63.31a1.2 1.2 0 0 0 1.275-1.275V16.526c.127-1.148-1.403-1.658-11.092-11.726zm.382 3.952l6.5 6.5h-6.5zM6.32 23.028c-1.02-1.4.892-3.825 3.06-3.825a1.881 1.881 0 0 1 1.785 1.275L6.7 23.538zm14.025 20.144L8.105 25.705l4.462-3.06 12.112 17.467zm5.737-1.02c.637 1.4.51 2.04 1.275 6.375-3.825-2.295-4.335-2.422-5.482-3.442zm36.08 18.614H21.874V48.271c.127.127 6.757 4.08 7.267 4.08h26.392a1.275 1.275 0 0 0 0-2.55H30.289l-1.147-6.375c-.637-3.7-2.167-4.207-14.407-22.311.51-.255 1.4-.51 1.657 0l4.08 5.737c1.02 1.4 3.06-.127 2.04-1.4l-.637-1.02V6.964h29.45v9.562A1.2 1.2 0 0 0 52.6 17.8h9.562z" transform="translate(-3.444 -4.35)"/><path id="Path_52" data-name="Path 52" class="cls-1" d="M22.1 18.775a1.2 1.2 0 0 0 1.275 1.275h27.156a1.275 1.275 0 1 0 0-2.55H23.375a1.278 1.278 0 0 0-1.275 1.275z" transform="translate(1.685 -.734)"/><path id="Path_53" data-name="Path 53" class="cls-1" d="M50.4 28.8H23.375a1.275 1.275 0 0 0 0 2.55h27.156a1.2 1.2 0 0 0 1.275-1.275A1.31 1.31 0 0 0 50.4 28.8z" transform="translate(1.685 2.373)"/></g></g></svg>