<svg id="noun_Exit_325065" xmlns="http://www.w3.org/2000/svg" xmlns:xlink="http://www.w3.org/1999/xlink" viewBox="0 0 52.995 55">
  <defs>
    <style>
      .cls-1 {
        fill: url(#linear-gradient);
      }
    </style>
    <linearGradient id="linear-gradient" x1="0.5" x2="0.5" y2="1" gradientUnits="objectBoundingBox">
      <stop offset="0" stop-color="#ee1621"/>
      <stop offset="1" stop-color="#ff9300"/>
    </linearGradient>
  </defs>
  <g id="Group_4" data-name="Group 4">
    <path id="Path_12" data-name="Path 12" class="cls-1" d="M52.92,24.38a1,1,0,0,0-.22-1.09l-12-12a1,1,0,0,0-1.41,1.41L49.59,23H28a1,1,0,0,0,0,2H49.59L39.29,35.29A1.005,1.005,0,0,0,40,37a1.024,1.024,0,0,0,.71-.29l12-12A1.032,1.032,0,0,0,52.92,24.38Z"/>
    <path id="Path_13" data-name="Path 13" class="cls-1" d="M35,29a1,1,0,0,0-1,1V46H24V8a.987.987,0,0,0-.7-.95L7.44,2H34V18a1,1,0,0,0,2,0V1a1,1,0,0,0-1-1H1C.97,0,.94.02.91.02A.758.758,0,0,0,.75.05.849.849,0,0,0,.49.16C.47.17.43.17.41.19A.6.6,0,0,0,.33.27C.31.29.29.3.28.32A1.015,1.015,0,0,0,.09.59C.08.61.08.63.07.65A1.039,1.039,0,0,0,0,1V47a1.039,1.039,0,0,0,.07.35.313.313,0,0,0,.05.1,1.374,1.374,0,0,0,.13.2l.09.09a1.274,1.274,0,0,0,.19.13c.04.02.07.04.11.06.02.01.03.02.05.02l22,7A1.177,1.177,0,0,0,23,55a1.036,1.036,0,0,0,.59-.19A1,1,0,0,0,24,54V48H35a1,1,0,0,0,1-1V30A1,1,0,0,0,35,29ZM22,52.63,2,46.27V2.37L22,8.73Z"/>
  </g>
</svg>
