<svg xmlns="http://www.w3.org/2000/svg" xmlns:xlink="http://www.w3.org/1999/xlink" viewBox="0 0 130.739 125.813">
  <defs>
    <style>
      .cls-1 {
        fill: url(#linear-gradient);
      }
    </style>
    <linearGradient id="linear-gradient" x1="0.5" x2="0.5" y2="1" gradientUnits="objectBoundingBox">
      <stop offset="0" stop-color="#ee1621"/>
      <stop offset="1" stop-color="#ff9300"/>
    </linearGradient>
  </defs>
  <g id="icon6" transform="translate(-0.002 0.005)">
    <g id="Group_21" data-name="Group 21">
      <path id="Path_51" data-name="Path 51" class="cls-1" d="M107.01.95C105.1-.958,102.648.677,36.68.132a2.575,2.575,0,0,0-2.724,2.73V35.03c-.273-.274-4.362-9.27-13.085-3.817-.544-.545-1.907-4.09-6.814-4.907a13,13,0,0,0-9.268,2.453c-4.634,3.543-6.27,9.812-3.27,13.9C11.873,57.65,32.59,87.366,33.68,88.73v34.347a2.575,2.575,0,0,0,2.726,2.726H128a2.575,2.575,0,0,0,2.726-2.726V26.034c.272-2.454-3-3.544-23.716-25.084Zm.818,8.45,13.9,13.9h-13.9ZM6.15,39.936c-2.18-3,1.908-8.178,6.542-8.178,2.726,0,3.27,1.908,3.816,2.726l-9.54,6.542Zm29.985,43.07L9.965,45.66l9.542-6.542,25.9,37.345ZM48.4,80.826c1.363,3,1.09,4.36,2.726,13.63-8.178-4.906-9.272-5.18-11.722-7.36Zm77.144,39.8H39.406V93.91c.273.273,14.448,8.723,15.538,8.723h56.427a2.726,2.726,0,1,0,0-5.452H57.4l-2.454-13.63c-1.363-7.9-4.634-9-30.8-47.7,1.09-.545,3-1.09,3.544,0l8.723,12.267c2.182,3,6.543-.273,4.363-3l-1.367-2.183V5.59h62.97V26.034A2.575,2.575,0,0,0,105.1,28.76h20.444Z"/>
      <path id="Path_52" data-name="Path 52" class="cls-1" d="M50.856,38.573A2.575,2.575,0,0,0,53.582,41.3h58.063a2.728,2.728,0,1,0,0-5.453H53.582a2.732,2.732,0,0,0-2.726,2.726Z"/>
      <path id="Path_53" data-name="Path 53" class="cls-1" d="M111.372,66.65H53.582a2.727,2.727,0,1,0,0,5.453h58.063a2.575,2.575,0,0,0,2.726-2.726,2.8,2.8,0,0,0-3-2.726Z"/>
    </g>
  </g>
</svg>
