<svg xmlns="http://www.w3.org/2000/svg" viewBox="0 0 133.84 136.328"><defs><style>.a{opacity:0.12;fill:url(#a);}.b{opacity:0.401;}.c{fill:#4d4d4d;}</style><radialGradient id="a" cx=".5" cy=".598" r=".548" gradientTransform="matrix(.993 0 0 .912 .003 .053)"><stop offset="0" stop-color="#fc7777" stop-opacity="0"/><stop offset=".714" stop-color="#ffd034" stop-opacity="0"/><stop offset="1" stop-color="#2b2827"/></radialGradient></defs><path class="a" d="M66.92 0c36.96 0 66.92 29.766 66.92 66.484s-29.96 66.484-66.92 66.484S0 103.2 0 66.484 29.96 0 66.92 0z"/><g class="b"><path class="c" d="M129 81.837L115.013 66.8V43.48h-12.867v9.48L90.033 39.92 51.09 81.838h6.653v28.27h4.047v-28.27h56.514v46.425h-16.16v-32.29H77.922v32.29h-8.065v4.045h52.493v-50.47zm-47.033 46.425v-28.27h16.157v28.27zm24.223-80.74h4.777v14.94l-4.777-5.14zm-16.133-1.683L119.74 77.79H60.375z"/><path class="c" d="M47.678 106.597a16.157 16.157 0 1 0-24.272 0c-20.25 8.943-18.134 29.73-18.134 29.73h60.562s2.413-20.13-18.156-29.73zM35.542 83.86A12.1 12.1 0 1 1 23.43 95.97a12.127 12.127 0 0 1 12.112-12.11zm-26.17 48.447a26.1 26.1 0 0 1 17.47-22.737c.024.024.05.024.073.05a16.288 16.288 0 0 0 8.627 2.533 16.087 16.087 0 0 0 8.63-2.51c.024-.024.05-.024.1-.05a26.1 26.1 0 0 1 17.473 22.738H9.372z"/></g></svg>