<svg xmlns="http://www.w3.org/2000/svg" viewBox="0 0 18.367 17.675">
  <defs>
    <style>
      .cls-1 {
        fill: #ff8686;
      }
    </style>
  </defs>
  <g id="Group" transform="translate(0 0)">
    <path id="Compound_Path" data-name="Compound Path" class="cls-1" d="M28.269,20.579a.458.458,0,0,0-.458-.458H14.229v-6a1.512,1.512,0,0,1,3,0v1.008h.916V14.121a2.428,2.428,0,0,0-4.833,0v6H10.358a.458.458,0,0,0-.458.458v1.374a5.5,5.5,0,0,0,5.039,5.474A2.634,2.634,0,0,0,17.527,29.6h3.115a2.634,2.634,0,0,0,2.588-2.176,5.5,5.5,0,0,0,5.039-5.474Zm-7.627,8.108H17.527a1.718,1.718,0,0,1-1.649-1.237h6.413a1.718,1.718,0,0,1-1.649,1.237Zm6.711-6.734a4.581,4.581,0,0,1-4.581,4.581H15.4a4.581,4.581,0,0,1-4.581-4.581v-.916H27.352Z" transform="translate(-9.9 -11.928)"/>
  </g>
</svg>
