<svg id="listproperty" xmlns="http://www.w3.org/2000/svg" xmlns:xlink="http://www.w3.org/1999/xlink" viewBox="0 0 27.552 34.764">
  <defs>
    <style>
      .cls-1 {
        fill: url(#linear-gradient);
      }
    </style>
    <linearGradient id="linear-gradient" x1="0.5" x2="0.5" y2="1" gradientUnits="objectBoundingBox">
      <stop offset="0" stop-color="#ee1621"/>
      <stop offset="1" stop-color="#ff9300"/>
    </linearGradient>
  </defs>
  <path id="Path_124" data-name="Path 124" class="cls-1" d="M55.168,20H28.883a.608.608,0,0,0-.633.579v33.6a.608.608,0,0,0,.633.579H55.168a.608.608,0,0,0,.633-.579v-33.6A.608.608,0,0,0,55.168,20Zm-.633,33.6H29.517V21.159H54.535ZM38.625,27.219V29.78a.608.608,0,0,0,.633.579h5.529a.608.608,0,0,0,.633-.579V27.219a.673.673,0,0,0,.8-.15.542.542,0,0,0-.029-.748l-.95-.869h0L42.476,22.9a.676.676,0,0,0-.893,0l-2.755,2.52h0l-.95.869a.55.55,0,0,0-.057.755A.679.679,0,0,0,38.625,27.219ZM39.891,26.1l2.134-1.953L44.16,26.1v3.1H39.891Zm5.985,8.807,1.083.991,3.091-2.827a.681.681,0,0,1,.9.009.549.549,0,0,1-.009.826L47.41,37.127a.676.676,0,0,1-.893,0l-1.533-1.4a.544.544,0,0,1,.033-.787A.677.677,0,0,1,45.877,34.908Zm-14.118-.353a.608.608,0,0,1,.633-.579h9.317a.582.582,0,1,1,0,1.159H32.392a.609.609,0,0,1-.633-.574Zm0,2.248a.608.608,0,0,1,.633-.579h6.15a.582.582,0,1,1,0,1.159h-6.15A.608.608,0,0,1,31.759,36.8Zm19.185,3.221a.545.545,0,0,1,0,.817L47.41,44.08a.676.676,0,0,1-.893,0l-1.533-1.4a.544.544,0,0,1,.033-.787.677.677,0,0,1,.86-.03l1.083.991,3.091-2.827a.676.676,0,0,1,.893,0ZM31.759,41.513a.608.608,0,0,1,.633-.579h9.317a.582.582,0,1,1,0,1.159H32.392A.608.608,0,0,1,31.759,41.513Zm0,2.248a.608.608,0,0,1,.633-.579h6.15a.582.582,0,1,1,0,1.159h-6.15a.664.664,0,0,1-.45-.172.555.555,0,0,1-.183-.413Zm0,4.71a.608.608,0,0,1,.633-.579h9.317a.582.582,0,1,1,0,1.159H32.392a.664.664,0,0,1-.45-.172.555.555,0,0,1-.183-.413Zm0,2.248a.608.608,0,0,1,.633-.579h6.15a.582.582,0,1,1,0,1.159h-6.15a.664.664,0,0,1-.452-.174.554.554,0,0,1-.181-.417Zm18.818-2.909-1.317,1.205,1.317,1.205a.551.551,0,0,1,.2.576.609.609,0,0,1-.468.428.669.669,0,0,1-.629-.186L48.36,49.827l-1.317,1.205a.677.677,0,0,1-.86-.03.544.544,0,0,1-.033-.787l1.317-1.205-1.324-1.2a.544.544,0,0,1,.033-.787.677.677,0,0,1,.86-.03l1.324,1.194,1.317-1.205a.681.681,0,0,1,.9,0A.549.549,0,0,1,50.576,47.811Z" transform="translate(-28.25 -20)"/>
</svg>
