<svg xmlns="http://www.w3.org/2000/svg" xmlns:xlink="http://www.w3.org/1999/xlink" viewBox="0 0 153.764 148">
  <defs>
    <style>
      .cls-1 {
        fill: url(#linear-gradient);
      }
    </style>
    <linearGradient id="linear-gradient" x1="0.5" x2="0.5" y2="1" gradientUnits="objectBoundingBox">
      <stop offset="0" stop-color="#ee1621"/>
      <stop offset="1" stop-color="#ff9300"/>
    </linearGradient>
  </defs>
  <g id="noun_945027_cc" transform="translate(0.002)">
    <g id="Layer_2" data-name="Layer 2" transform="translate(-0.002)">
      <g id="Group_80" data-name="Group 80">
        <path id="Path_110" data-name="Path 110" class="cls-1" d="M144.718,54.787h-7.236a50.62,50.62,0,0,0-19.024-25.325l1.749-16.1a3.015,3.015,0,0,0-3.708-3.256L87.164,17.222a75.826,75.826,0,0,0-10.251-.693A70.1,70.1,0,0,0,33.167,31.06,51.584,51.584,0,0,0,18.093,50.024,13.145,13.145,0,0,1,10.5,27.05a3.015,3.015,0,0,0-3.98-4.522,19.2,19.2,0,0,0,9.437,33.344,42.208,42.208,0,0,0-1.658,11.7c0,14.532,7.477,28.189,20.622,37.867l-2.653,4.613a9.045,9.045,0,0,0-.663,7.3,10.04,10.04,0,0,0,4.432,5.668l6.18,3.558a9.045,9.045,0,0,0,4.583,1.236,9.317,9.317,0,0,0,2.412-.332,9.045,9.045,0,0,0,5.638-4.4l3.437-6.783a75.553,75.553,0,0,0,34.1.693l.9,3.346a9.256,9.256,0,0,0,9.045,7.236,9.045,9.045,0,0,0,1.93-.211l7.025-1.538a9.286,9.286,0,0,0,6.633-11.306l-1.568-7.356A53.815,53.815,0,0,0,134.437,87.77h10.281a9.2,9.2,0,0,0,9.045-9.045V63.983a9.2,9.2,0,0,0-9.046-9.2ZM113.725,16.981l-.965,8.773a67.744,67.744,0,0,0-12.451-5.517Zm34.008,61.654a3.015,3.015,0,0,1-3.015,3.015H132.658a3.013,3.013,0,0,0-.422,0,3.014,3.014,0,0,0-.663,0,9.319,9.319,0,0,0-.965.6,3.016,3.016,0,0,0-.392.543,2.831,2.831,0,0,0-.271.362A47.816,47.816,0,0,1,111.494,102.9h0a18.191,18.191,0,0,0-.844.814q-.249.517-.452,1.055a3.015,3.015,0,0,0,0,.513,3.014,3.014,0,0,0,0,.663h0l2.02,9.376a3.407,3.407,0,0,1-2.02,4.13l-7.236,2.05a3.256,3.256,0,0,1-3.8-2.593L97.5,112.673h0a22.558,22.558,0,0,1-.543-1.055,20.426,20.426,0,0,1-.874-.754H95.7a3.015,3.015,0,0,0-.693-.241H94.55a3.016,3.016,0,0,0-.724,0,71,71,0,0,1-36.178-.633H56.141l-.543.181-.482.271-.452.362a3.016,3.016,0,0,0-.362.452,2.836,2.836,0,0,0-.211.241l-4.462,8.8a3.142,3.142,0,0,1-4.311,1.116l-6.211-3.588a4.01,4.01,0,0,1-1.688-2.231,3.015,3.015,0,0,1,0-2.472l4.04-6.964a2.834,2.834,0,0,0,.151-.482,1.926,1.926,0,0,0,.181-1.146,1.779,1.779,0,0,0-.181-1.116,4.936,4.936,0,0,0-1.025-1.3c-12.873-8.592-20.26-21.1-20.26-34.49a36.42,36.42,0,0,1,2.532-13.356h0v-.211A45.012,45.012,0,0,1,36.815,35.974,64.066,64.066,0,0,1,76.823,22.769a69.517,69.517,0,0,1,10.016.725h.144a63.041,63.041,0,0,1,26.5,10.04,44.409,44.409,0,0,1,18.783,25.2v.211a3.016,3.016,0,0,0,.271.543,3.256,3.256,0,0,0,1.206,1.176l.513.181h10.462a3.015,3.015,0,0,1,3.015,3.015Z" transform="translate(0.002 20.193)"/>
        <path id="Path_111" data-name="Path 111" class="cls-1" d="M40.792,17.37a33.917,33.917,0,0,0-21.315,7.447,3.032,3.032,0,1,0,3.829,4.7,28.249,28.249,0,0,1,36.932,1.809A3.017,3.017,0,1,0,64.4,26.957,34.1,34.1,0,0,0,40.792,17.37Z" transform="translate(36.997 34.998)"/>
        <circle id="Ellipse_9" data-name="Ellipse 9" class="cls-1" cx="4.191" cy="4.191" r="4.191" transform="translate(115.113 75.794)"/>
        <path id="Path_112" data-name="Path 112" class="cls-1" d="M34.488,27.5A13.748,13.748,0,1,0,20.74,13.748,13.748,13.748,0,0,0,34.488,27.5Zm0-21.466a7.718,7.718,0,1,1-7.718,7.718A7.718,7.718,0,0,1,34.488,6.03Z" transform="translate(41.794 0)"/>
      </g>
    </g>
  </g>
</svg>
