<svg xmlns="http://www.w3.org/2000/svg" xmlns:xlink="http://www.w3.org/1999/xlink" viewBox="0 0 205.435 150">
  <defs>
    <style>
      .cls-1 {
        fill: url(#linear-gradient);
      }
    </style>
    <linearGradient id="linear-gradient" x1="0.5" x2="0.5" y2="1" gradientUnits="objectBoundingBox">
      <stop offset="0" stop-color="#ee1621"/>
      <stop offset="1" stop-color="#ff9300"/>
    </linearGradient>
  </defs>
  <g id="noun_1016239_cc" transform="translate(-0.5 -8.6)">
    <g id="Group_100" data-name="Group 100" transform="translate(0.5 8.6)">
      <path id="Path_94" data-name="Path 94" class="cls-1" d="M130.341,18.1H16.024c-1.334,0-2.224.652-2.224,1.63s.89,1.63,2.224,1.63H130.341c1.334,0,2.224-.652,2.224-1.63S131.675,18.1,130.341,18.1Z" transform="translate(29.57 12.878)"/>
      <path id="Path_95" data-name="Path 95" class="cls-1" d="M80,26.2H30.624c-1.334,0-2.224.652-2.224,1.63s.89,1.63,2.224,1.63H80c1.334,0,2.224-.652,2.224-1.63S81.333,26.2,80,26.2Z" transform="translate(79.912 31.191)"/>
      <path id="Path_96" data-name="Path 96" class="cls-1" d="M15.43,26.2a1.63,1.63,0,1,0,0,3.261H51.3a1.63,1.63,0,1,0,0-3.261Z" transform="translate(29.57 31.191)"/>
      <path id="Path_97" data-name="Path 97" class="cls-1" d="M16.024,37.561H131.23c1.334,0,2.224-.652,2.224-1.63s-.89-1.63-2.224-1.63H16.024c-1.334,0-2.224.652-2.224,1.63S14.69,37.561,16.024,37.561Z" transform="translate(29.57 49.504)"/>
      <path id="Path_99" data-name="Path 99" class="cls-1" d="M7.013,54.878H77.122a11.7,11.7,0,0,0,11.087,7.5h17.935a11.7,11.7,0,0,0,11.087-7.5h70.435a4.53,4.53,0,0,0,4.239-3.913,4.27,4.27,0,0,0-3.913-4.239L111.035,46.4l-.652,4.239A3.8,3.8,0,0,1,106.8,53.9H88.861a3.352,3.352,0,0,1-3.587-3.261L84.622,46.4l-77.609.326A4.044,4.044,0,0,0,3.1,50.965,3.767,3.767,0,0,0,7.013,54.878Z" transform="translate(5.378 76.861)"/>
      <path id="Path_100" data-name="Path 100" class="cls-1" d="M10.839,126.643a4.316,4.316,0,0,0,4.239-4.239V28.491A11.69,11.69,0,0,1,26.817,16.752h125.87a11.69,11.69,0,0,1,11.739,11.739V122.4a4.239,4.239,0,0,0,8.478,0V28.491A19.97,19.97,0,0,0,153.013,8.6H26.491A19.97,19.97,0,0,0,6.6,28.491V122.4A4.316,4.316,0,0,0,10.839,126.643Z" transform="translate(13.291 -8.6)"/>
      <path id="Path_101" data-name="Path 101" class="cls-1" d="M19.413,71.33H187.022a18.927,18.927,0,0,0,18.913-18.913V48.83a1.63,1.63,0,0,0-3.261,0v3.587A15.656,15.656,0,0,1,187.022,68.07H19.413A15.656,15.656,0,0,1,3.761,52.417V48.83A1.54,1.54,0,0,0,2.13,47.2,1.54,1.54,0,0,0,.5,48.83v3.587A18.927,18.927,0,0,0,19.413,71.33Z" transform="translate(-0.5 78.67)"/>
    </g>
  </g>
</svg>
