<svg xmlns="http://www.w3.org/2000/svg" viewBox="0 0 70.531 62.376"><defs><style>.cls-1{fill:url(#linear-gradient)}</style><linearGradient id="linear-gradient" x1=".5" x2=".5" y2="1" gradientUnits="objectBoundingBox"><stop offset="0" stop-color="#ee1621"/><stop offset="1" stop-color="#fe9100"/></linearGradient></defs><g id="noun_1203583_cc" transform="translate(0 -4.1)"><g id="Group_20" data-name="Group 20" transform="translate(0 4.1)"><path id="Path_48" data-name="Path 48" class="cls-1" d="M14.51 12.885h17.77a1.373 1.373 0 0 0 1.41-1.492A1.373 1.373 0 0 0 32.28 9.9H14.51a1.373 1.373 0 0 0-1.41 1.492 1.454 1.454 0 0 0 1.41 1.493z" transform="translate(5.374 -1.245)"/><path id="Path_49" data-name="Path 49" class="cls-1" d="M22.9 30.137a1.413 1.413 0 1 0 2.821 0 9.054 9.054 0 0 1 8.744-9.252 1.373 1.373 0 0 0 1.41-1.492 1.373 1.373 0 0 0-1.41-1.492C28.118 17.9 22.9 23.421 22.9 30.137z" transform="translate(9.395 2.693)"/><path id="Path_50" data-name="Path 50" class="cls-1" d="M68.962 55.135l-9.308-9.849a19.886 19.886 0 0 0 1.833-8.207 18.714 18.714 0 0 0-11.282-17.31v-8.208a1.373 1.373 0 0 0-1.41-1.492h-4.231V5.592a1.373 1.373 0 0 0-1.41-1.492H13.962a1.248 1.248 0 0 0-.987.448L.423 17.829A1.191 1.191 0 0 0 0 18.873v40.142a1.373 1.373 0 0 0 1.41 1.492h4.231v4.477a1.373 1.373 0 0 0 1.41 1.492h41.6a1.373 1.373 0 0 0 1.41-1.492V54.24c.564-.3 1.128-.448 1.692-.746l9.308 9.849a5.319 5.319 0 0 0 7.756 0 5.958 5.958 0 0 0 .145-8.208zM58.526 36.93c0 8.506-6.628 15.519-14.667 15.519S29.192 45.436 29.192 36.93s6.629-15.52 14.667-15.52 14.667 7.014 14.667 15.52zM47.244 13.054v5.671a18.1 18.1 0 0 0-2.821-.3v-5.371zm-34.693-3.88v8.207H4.795zm-9.73 11.192h11.141a1.373 1.373 0 0 0 1.41-1.492V7.085H41.6v11.64a16.949 16.949 0 0 0-10.718 6.118H7.051a1.495 1.495 0 0 0 0 2.985h21.718a19.207 19.207 0 0 0-2.256 9.1H7.051a1.495 1.495 0 0 0 0 2.985h19.6a20.01 20.01 0 0 0 3.808 9.1H7.051a1.495 1.495 0 0 0 0 2.985h26.513a17.124 17.124 0 0 0 8.036 3.436v2.238H2.821zm44.423 43.126H8.462v-2.985h34.551a1.373 1.373 0 0 0 1.41-1.492v-3.581a16.439 16.439 0 0 0 2.821-.3zm19.6-2.238a2.705 2.705 0 0 1-3.808 0l-8.885-9.4a25.063 25.063 0 0 0 3.808-4.029l8.885 9.4a2.821 2.821 0 0 1 .003 4.028z" transform="translate(0 -4.1)"/></g></g></svg>