<svg xmlns="http://www.w3.org/2000/svg" xmlns:xlink="http://www.w3.org/1999/xlink" viewBox="0 0 171.021 150">
  <defs>
    <style>
      .cls-1 {
        fill-rule: evenodd;
        fill: url(#linear-gradient);
      }
    </style>
    <linearGradient id="linear-gradient" x1="0.5" x2="0.5" y2="1" gradientUnits="objectBoundingBox">
      <stop offset="0" stop-color="#ee1621"/>
      <stop offset="1" stop-color="#ff9300"/>
    </linearGradient>
  </defs>
  <g id="noun_406696_cc" transform="translate(-5 -10.531)">
    <path id="Path_115" data-name="Path 115" class="cls-1" d="M101.021,10.531a75.081,75.081,0,0,0-75,75,24.625,24.625,0,0,1,.238,2.85l-13.9-13.836L5,81.909,31.841,108.75,58.682,81.909l-7.3-7.363-13.6,13.539V83.215a63.263,63.263,0,1,1,63.242,65.558v11.758a75,75,0,0,0,0-150ZM95.855,36.125a1.1,1.1,0,0,0-1.128,1.069v8.729a40.213,40.213,0,0,0-12.233,4.454,26.727,26.727,0,0,0-6.77,5.523,19.155,19.155,0,0,0-3.919,6.948,17.617,17.617,0,0,0-.891,3.682,27.158,27.158,0,0,0-.059,4.513,18.905,18.905,0,0,0,.95,4.632,15.425,15.425,0,0,0,2.138,4.572c5.326,7.213,12.977,9.65,20.784,11.4v17.7a37.231,37.231,0,0,1-4.276-1.188,51.01,51.01,0,0,1-8.254-3.979c-12.881-7.36-18.7,10.209-8.017,15.024a74.883,74.883,0,0,0,12.114,4.691,75.151,75.151,0,0,0,8.432,1.6v8.373a1.1,1.1,0,0,0,1.128,1.069h10.333a1.051,1.051,0,0,0,1.069-1.069v-8.076a43.435,43.435,0,0,0,9.145-1.6,26.718,26.718,0,0,0,8.907-4.394,20.565,20.565,0,0,0,5.285-6.057,18.607,18.607,0,0,0,2.494-6.948,30.535,30.535,0,0,0,0-9.2,19.774,19.774,0,0,0-3.741-8.135c-1.632-2.173-4.739-4.371-9.382-6.473a76.013,76.013,0,0,0-12.708-4.216V61.3a27.1,27.1,0,0,1,3.8.95,40.13,40.13,0,0,1,7.3,3.266c10.273,5.921,18.084-7.13,8.789-13.064a41.2,41.2,0,0,0-10.333-5.226,44.1,44.1,0,0,0-9.561-1.9V37.194a1.051,1.051,0,0,0-1.069-1.069ZM94.727,61.838V75.674a16.574,16.574,0,0,1-3.088-1.366,7.066,7.066,0,0,1-2.85-2.85,5.866,5.866,0,0,1-.119-4.394,7.55,7.55,0,0,1,1.306-2.2,8.8,8.8,0,0,1,2.494-2.019A13.51,13.51,0,0,1,94.727,61.838Zm12.53,32.72c1.361.392,2.69.793,3.979,1.306,2.287.911,5.109,2.89,5.76,4.988a5.946,5.946,0,0,1-.594,5.166c-2.266,3.128-5.061,3.822-8.432,4.216-.227.027-.482.039-.713.059Z" transform="translate(0 0)"/>
  </g>
</svg>
