<svg xmlns="http://www.w3.org/2000/svg" xmlns:xlink="http://www.w3.org/1999/xlink" viewBox="0 0 169.41 129.758">
  <defs>
    <style>
      .cls-1, .cls-2 {
        fill: url(#linear-gradient);
      }

      .cls-2 {
        fill-rule: evenodd;
      }
    </style>
    <linearGradient id="linear-gradient" x1="0.5" x2="0.5" y2="1" gradientUnits="objectBoundingBox">
      <stop offset="0" stop-color="#ee1621"/>
      <stop offset="1" stop-color="#ff9300"/>
    </linearGradient>
  </defs>
  <g id="noun_282836_cc" transform="translate(-9.1 -25.1)">
    <g id="Group_75" data-name="Group 75" transform="translate(60.921 118.624)">
      <path id="Path_80" data-name="Path 80" class="cls-1" d="M48.094,95.688H149.275a1.094,1.094,0,1,0,0-2.188H48.094A1.176,1.176,0,0,0,47,94.594,1.078,1.078,0,0,0,48.094,95.688Z" transform="translate(-47 -93.5)"/>
    </g>
    <g id="Group_76" data-name="Group 76" transform="translate(60.921 127.375)">
      <path id="Path_81" data-name="Path 81" class="cls-1" d="M48.094,102.088H149.275a1.094,1.094,0,1,0,0-2.188H48.094A1.176,1.176,0,0,0,47,100.994,1.078,1.078,0,0,0,48.094,102.088Z" transform="translate(-47 -99.9)"/>
    </g>
    <g id="Group_77" data-name="Group 77" transform="translate(60.921 136.126)">
      <path id="Path_82" data-name="Path 82" class="cls-1" d="M48.094,108.488H149.275a1.094,1.094,0,1,0,0-2.188H48.094A1.176,1.176,0,0,0,47,107.394,1.006,1.006,0,0,0,48.094,108.488Z" transform="translate(-47 -106.3)"/>
    </g>
    <path id="Path_83" data-name="Path 83" class="cls-2" d="M154.6,53.363H138.056V47.894a1.094,1.094,0,0,0-2.188,0v5.469H61.077V47.894a1.094,1.094,0,1,0-2.188,0v5.469h-25.3A1.176,1.176,0,0,0,32.5,54.457v3.282a2.16,2.16,0,0,0,2.188,2.188h8.888a2.16,2.16,0,0,0,2.188-2.188V55.551H154.6a1.094,1.094,0,0,0,0-2.188ZM34.688,57.875V55.688h8.751v2.188Z" transform="translate(8.595 7.971)"/>
    <path id="Path_84" data-name="Path 84" class="cls-2" d="M154.6,62.9H33.594A1.176,1.176,0,0,0,32.5,63.994v3.282a2.16,2.16,0,0,0,2.188,2.188h8.888a2.16,2.16,0,0,0,2.188-2.188V65.088H154.6a1.094,1.094,0,0,0,0-2.188ZM34.688,67.275V65.088h8.751v2.188C43.575,67.412,34.688,67.275,34.688,67.275Z" transform="translate(8.595 13.884)"/>
    <path id="Path_85" data-name="Path 85" class="cls-2" d="M154.6,87H33.594A1.176,1.176,0,0,0,32.5,88.094v3.282a2.16,2.16,0,0,0,2.188,2.188h8.888a2.16,2.16,0,0,0,2.188-2.188V89.188H154.6a1.094,1.094,0,0,0,0-2.188ZM34.688,91.512V89.324h8.751v2.188Z" transform="translate(8.595 22.736)"/>
    <g id="Group_78" data-name="Group 78" transform="translate(60.921 83.347)">
      <path id="Path_86" data-name="Path 86" class="cls-1" d="M53.563,67.7H49.188A2.16,2.16,0,0,0,47,69.888v4.375a2.16,2.16,0,0,0,2.188,2.188h4.375a1.976,1.976,0,0,0,.957-.273,2.315,2.315,0,0,0,1.231-1.914V69.888A2.249,2.249,0,0,0,53.563,67.7Zm0,6.7H49.188V70.024h4.375Z" transform="translate(-47 -67.7)"/>
      <path id="Path_87" data-name="Path 87" class="cls-1" d="M53.563,77.4H49.188A2.16,2.16,0,0,0,47,79.588v4.375a2.16,2.16,0,0,0,2.188,2.188h4.375a1.976,1.976,0,0,0,.957-.273,2.315,2.315,0,0,0,1.231-1.914V79.588A2.16,2.16,0,0,0,53.563,77.4Zm0,6.563H49.188V79.588h4.375Z" transform="translate(-47 -64.137)"/>
      <path id="Path_88" data-name="Path 88" class="cls-1" d="M63.263,67.7H58.888A2.16,2.16,0,0,0,56.7,69.888v4.375a2.16,2.16,0,0,0,2.188,2.188h4.375a1.976,1.976,0,0,0,.957-.273,2.315,2.315,0,0,0,1.231-1.914V69.888A2.353,2.353,0,0,0,63.263,67.7Zm0,6.7H58.888V70.024h4.375Z" transform="translate(-43.437 -67.7)"/>
      <path id="Path_89" data-name="Path 89" class="cls-1" d="M63.263,77.4H58.888A2.16,2.16,0,0,0,56.7,79.588v4.375a2.16,2.16,0,0,0,2.188,2.188h4.375a1.976,1.976,0,0,0,.957-.273,2.315,2.315,0,0,0,1.231-1.914V79.588A2.249,2.249,0,0,0,63.263,77.4Zm0,6.563H58.888V79.588h4.375Z" transform="translate(-43.437 -64.137)"/>
      <path id="Path_90" data-name="Path 90" class="cls-1" d="M72.863,67.7H68.488A2.16,2.16,0,0,0,66.3,69.888v4.375a2.16,2.16,0,0,0,2.188,2.188h4.375a1.976,1.976,0,0,0,.957-.273,2.316,2.316,0,0,0,1.231-1.914V69.888A2.249,2.249,0,0,0,72.863,67.7Zm0,6.7H68.488V70.024h4.375Z" transform="translate(-39.911 -67.7)"/>
      <path id="Path_91" data-name="Path 91" class="cls-1" d="M72.863,77.4H68.488A2.16,2.16,0,0,0,66.3,79.588v4.375a2.16,2.16,0,0,0,2.188,2.188h4.375a1.976,1.976,0,0,0,.957-.273,2.316,2.316,0,0,0,1.231-1.914V79.588A2.16,2.16,0,0,0,72.863,77.4Zm0,6.563H68.488V79.588h4.375Z" transform="translate(-39.911 -64.137)"/>
      <path id="Path_92" data-name="Path 92" class="cls-1" d="M82.563,67.7H78.188A2.16,2.16,0,0,0,76,69.888v4.375a2.16,2.16,0,0,0,2.188,2.188h4.375a1.976,1.976,0,0,0,.957-.273,2.315,2.315,0,0,0,1.231-1.914V69.888A2.249,2.249,0,0,0,82.563,67.7Zm0,6.7H78.188V70.024h4.375Z" transform="translate(-36.348 -67.7)"/>
      <path id="Path_93" data-name="Path 93" class="cls-1" d="M82.563,77.4H78.188A2.16,2.16,0,0,0,76,79.588v4.375a2.16,2.16,0,0,0,2.188,2.188h4.375a1.976,1.976,0,0,0,.957-.273,2.315,2.315,0,0,0,1.231-1.914V79.588A2.16,2.16,0,0,0,82.563,77.4Zm0,6.563H78.188V79.588h4.375Z" transform="translate(-36.348 -64.137)"/>
      <path id="Path_94" data-name="Path 94" class="cls-1" d="M92.163,67.7H87.788A2.16,2.16,0,0,0,85.6,69.888v4.375a2.16,2.16,0,0,0,2.188,2.188h4.375a1.976,1.976,0,0,0,.957-.273,2.315,2.315,0,0,0,1.231-1.914V69.888A2.249,2.249,0,0,0,92.163,67.7Zm0,6.7H87.788V70.024h4.375Z" transform="translate(-32.822 -67.7)"/>
      <path id="Path_95" data-name="Path 95" class="cls-1" d="M92.163,77.4H87.788A2.16,2.16,0,0,0,85.6,79.588v4.375a2.16,2.16,0,0,0,2.188,2.188h4.375a1.976,1.976,0,0,0,.957-.273,2.315,2.315,0,0,0,1.231-1.914V79.588A2.16,2.16,0,0,0,92.163,77.4Zm0,6.563H87.788V79.588h4.375Z" transform="translate(-32.822 -64.137)"/>
      <path id="Path_96" data-name="Path 96" class="cls-1" d="M101.863,67.7H97.488A2.16,2.16,0,0,0,95.3,69.888v4.375a2.16,2.16,0,0,0,2.188,2.188h4.375a1.976,1.976,0,0,0,.957-.273,2.315,2.315,0,0,0,1.231-1.914V69.888A2.249,2.249,0,0,0,101.863,67.7Zm0,6.7H97.488V70.024h4.375Z" transform="translate(-29.259 -67.7)"/>
      <path id="Path_97" data-name="Path 97" class="cls-1" d="M101.863,77.4H97.488A2.16,2.16,0,0,0,95.3,79.588v4.375a2.16,2.16,0,0,0,2.188,2.188h4.375a1.976,1.976,0,0,0,.957-.273,2.316,2.316,0,0,0,1.231-1.914V79.588A2.16,2.16,0,0,0,101.863,77.4Zm0,6.563H97.488V79.588h4.375Z" transform="translate(-29.259 -64.137)"/>
      <path id="Path_98" data-name="Path 98" class="cls-1" d="M111.463,67.7h-4.375a2.16,2.16,0,0,0-2.188,2.188v4.375a2.16,2.16,0,0,0,2.188,2.188h4.375a1.976,1.976,0,0,0,.957-.273,2.315,2.315,0,0,0,1.231-1.914V69.888A2.249,2.249,0,0,0,111.463,67.7Zm0,6.7h-4.375V70.024h4.375Z" transform="translate(-25.733 -67.7)"/>
      <path id="Path_99" data-name="Path 99" class="cls-1" d="M111.463,77.4h-4.375a2.16,2.16,0,0,0-2.188,2.188v4.375a2.16,2.16,0,0,0,2.188,2.188h4.375a1.976,1.976,0,0,0,.957-.273,2.316,2.316,0,0,0,1.231-1.914V79.588A2.16,2.16,0,0,0,111.463,77.4Zm0,6.563h-4.375V79.588h4.375Z" transform="translate(-25.733 -64.137)"/>
      <path id="Path_100" data-name="Path 100" class="cls-1" d="M116.688,76.451h4.375a1.976,1.976,0,0,0,.957-.273,2.315,2.315,0,0,0,1.231-1.914V69.888a2.16,2.16,0,0,0-2.188-2.188h-4.375a2.16,2.16,0,0,0-2.188,2.188v4.375A2.249,2.249,0,0,0,116.688,76.451Zm.137-6.563H121.2v4.375h-4.375Z" transform="translate(-22.207 -67.7)"/>
      <path id="Path_101" data-name="Path 101" class="cls-1" d="M121.163,77.4h-4.375a2.16,2.16,0,0,0-2.188,2.188v4.375a2.16,2.16,0,0,0,2.188,2.188h4.375a1.976,1.976,0,0,0,.957-.273,2.315,2.315,0,0,0,1.231-1.914V79.588A2.16,2.16,0,0,0,121.163,77.4Zm0,6.563h-4.375V79.588h4.375Z" transform="translate(-22.17 -64.137)"/>
    </g>
    <path id="Path_102" data-name="Path 102" class="cls-1" d="M178.51,52.309a9.986,9.986,0,0,0-8.888-9.571,9.887,9.887,0,0,0-8.751-8.751,10.033,10.033,0,0,0-9.845-8.888H19.081A9.921,9.921,0,0,0,9.1,34.945v92.43a9.921,9.921,0,0,0,8.888,9.845,9.887,9.887,0,0,0,8.751,8.751,10.089,10.089,0,0,0,9.434,8.888H168.528a9.921,9.921,0,0,0,9.981-9.845v-92.7ZM16.894,34.945a2.16,2.16,0,0,1,2.188-2.188H151.027a2.16,2.16,0,0,1,2.188,2.188v2.188H27.969A6.565,6.565,0,0,0,21.406,43.7v85.73H19.218a2.16,2.16,0,0,1-2.188-2.188V34.945Zm8.751,8.888a2.16,2.16,0,0,1,2.188-2.188H159.778a2.16,2.16,0,0,1,2.188,2.188V46.02H36.72a6.627,6.627,0,0,0-6.563,6.426v85.867H27.969a2.16,2.16,0,0,1-2.188-2.188V43.832Zm8.888,8.751A2.16,2.16,0,0,1,36.72,50.4H168.665a2.16,2.16,0,0,1,2.188,2.188v92.43a2.16,2.16,0,0,1-2.188,2.188H36.72a2.16,2.16,0,0,1-2.188-2.188V52.583Z" transform="translate(0 0)"/>
  </g>
</svg>
