<svg xmlns="http://www.w3.org/2000/svg" xmlns:xlink="http://www.w3.org/1999/xlink" viewBox="0 0 146.004 100.741">
  <defs>
    <style>
      .cls-1 {
        fill: url(#linear-gradient);
      }
    </style>
    <linearGradient id="linear-gradient" x1="0.5" x2="0.5" y2="1" gradientUnits="objectBoundingBox">
      <stop offset="0" stop-color="#ee1621"/>
      <stop offset="1" stop-color="#ff9300"/>
    </linearGradient>
  </defs>
  <g id="noun_Alert_1423459" transform="translate(115.059 -14.6)">
    <g id="Group_118" data-name="Group 118" transform="translate(-115.059 14.6)">
      <path id="Path_151" data-name="Path 151" class="cls-1" d="M20.5,71.417h0a56.042,56.042,0,0,1,2.318-44.7,5.029,5.029,0,0,0-2.483-6.623,4.951,4.951,0,0,0-6.457,2.152,65.553,65.553,0,0,0-2.815,52.649,5.1,5.1,0,0,0,6.457,2.98A4.964,4.964,0,0,0,20.5,71.417Z" transform="translate(-6.857 -17.94)"/>
      <path id="Path_152" data-name="Path 152" class="cls-1" d="M94.508,22.285a4.765,4.765,0,0,0-6.623-2.152h0a4.765,4.765,0,0,0-2.152,6.623,56.042,56.042,0,0,1,2.318,44.7A4.981,4.981,0,1,0,97.322,75.1,65.911,65.911,0,0,0,94.508,22.285Z" transform="translate(44.471 -17.981)"/>
      <path id="Path_153" data-name="Path 153" class="cls-1" d="M24.456,58.466a4.754,4.754,0,0,0,3.808-5.629,43.036,43.036,0,0,1,.5-17.219,4.936,4.936,0,0,0-3.642-5.96h0a4.936,4.936,0,0,0-5.96,3.642h0A54.53,54.53,0,0,0,18.5,54.658,5.006,5.006,0,0,0,24.456,58.466Z" transform="translate(0.284 -11.446)"/>
      <path id="Path_154" data-name="Path 154" class="cls-1" d="M77.632,35.624a43.124,43.124,0,0,1,.5,17.219A4.968,4.968,0,1,0,87.9,54.664a51.555,51.555,0,0,0-.5-21.358,4.968,4.968,0,0,0-9.768,1.821Z" transform="translate(39.492 -11.617)"/>
      <path id="Path_155" data-name="Path 155" class="cls-1" d="M101.525,82.507c-4.967-5.3-7.119-10.762-7.119-17.55V57.342A26.163,26.163,0,0,0,81.16,34.66V31.514a12.914,12.914,0,1,0-25.828,0h0v3.311A26.888,26.888,0,0,0,42.087,58.17v6.788c0,6.788-2.152,12.252-7.119,17.55A10.372,10.372,0,0,0,25.2,92.938v2.649a10.387,10.387,0,0,0,10.43,10.43H53.511a14.992,14.992,0,0,0,29.8,0h17.715a10.387,10.387,0,0,0,10.43-10.43V92.938A10.637,10.637,0,0,0,101.525,82.507Z" transform="translate(5.17 -18.6)"/>
    </g>
  </g>
</svg>
