<svg xmlns="http://www.w3.org/2000/svg" xmlns:xlink="http://www.w3.org/1999/xlink" viewBox="0 0 142.472 125.987">
  <defs>
    <style>
      .cls-1 {
        fill: url(#linear-gradient);
      }
    </style>
    <linearGradient id="linear-gradient" x1="0.5" x2="0.5" y2="1" gradientUnits="objectBoundingBox">
      <stop offset="0" stop-color="#ee1621"/>
      <stop offset="1" stop-color="#ff9300"/>
    </linearGradient>
  </defs>
  <g id="icon5" transform="translate(0.015 0.001)">
    <g id="Group_20" data-name="Group 20">
      <path id="Path_48" data-name="Path 48" class="cls-1" d="M40.16,23.51H76.05A2.772,2.772,0,0,0,78.9,20.5a2.772,2.772,0,0,0-2.85-3.014H40.16A2.772,2.772,0,0,0,37.313,20.5a2.938,2.938,0,0,0,2.848,3.014Z"/>
      <path id="Path_49" data-name="Path 49" class="cls-1" d="M65.227,66.307a2.853,2.853,0,1,0,5.7,0c0-10.247,7.975-18.687,17.66-18.687a2.772,2.772,0,0,0,2.84-3.013,2.772,2.772,0,0,0-2.843-3.014c-12.818,0-23.357,11.152-23.357,24.714Z"/>
      <path id="Path_50" data-name="Path 50" class="cls-1" d="M139.285,103.077l-18.8-19.892a40.165,40.165,0,0,0,3.7-16.577c0-15.974-9.684-29.537-22.787-34.962V15.07a2.772,2.772,0,0,0-2.848-3.014H90.008V3.014A2.772,2.772,0,0,0,87.16,0H28.2a2.522,2.522,0,0,0-2,.9L.855,27.728A2.4,2.4,0,0,0,0,29.838v81.076a2.772,2.772,0,0,0,2.848,3.014h8.545v9.042a2.772,2.772,0,0,0,2.848,3.014H98.27a2.772,2.772,0,0,0,2.848-3.014v-21.7c1.14-.6,2.28-.9,3.418-1.507l18.8,19.892a10.743,10.743,0,0,0,15.666,0,12.033,12.033,0,0,0,.285-16.578Zm-21.078-36.77c0,17.18-13.387,31.345-29.623,31.345S58.96,83.487,58.96,66.307,72.35,34.962,88.585,34.962s29.623,14.166,29.623,31.345ZM95.42,18.084V29.537a36.552,36.552,0,0,0-5.7-.6V18.084ZM25.35,10.247V26.824H9.684ZM5.7,32.852H28.2a2.772,2.772,0,0,0,2.848-3.014V6.028H84.026v23.51A34.233,34.233,0,0,0,62.38,41.893H14.24a3.02,3.02,0,0,0,0,6.028H58.1a38.794,38.794,0,0,0-4.557,18.385H14.24a3.02,3.02,0,0,0,0,6.028H53.832a40.414,40.414,0,0,0,7.69,18.385H14.242a3.02,3.02,0,0,0,0,6.028h53.55a34.585,34.585,0,0,0,16.235,6.932v4.52H5.7Zm89.723,87.1H17.09v-6.028H86.875a2.772,2.772,0,0,0,2.848-3.014v-7.23a33.2,33.2,0,0,0,5.7-.6Zm39.592-4.52a5.463,5.463,0,0,1-7.69,0l-17.946-18.99a50.62,50.62,0,0,0,7.69-8.137l17.942,19a5.7,5.7,0,0,1,0,8.135Z"/>
    </g>
  </g>
</svg>
