<svg xmlns="http://www.w3.org/2000/svg" viewBox="0 0 133.84 135.948"><defs><style>.a{opacity:0.4;}.b{fill:#4d4d4d;}.c{opacity:0.12;fill:url(#a);}</style><radialGradient id="a" cx=".5" cy=".598" r=".548" gradientTransform="matrix(.993 0 0 .912 .003 .053)"><stop offset="0" stop-color="#fc7777" stop-opacity="0"/><stop offset=".714" stop-color="#ffd034" stop-opacity="0"/><stop offset="1" stop-color="#2b2827"/></radialGradient></defs><g class="a"><path class="b" d="M67.083 35.457a12.173 12.173 0 0 0-12.286 12.04 12.29 12.29 0 0 0 24.572 0 12.173 12.173 0 0 0-12.287-12.04zm0 20.9a8.808 8.808 0 0 1-8.92-8.695 8.923 8.923 0 0 1 17.84 0 8.918 8.918 0 0 1-8.92 8.695zM38.304 99.497a5.69 5.69 0 1 0-5.89-5.685 5.912 5.912 0 0 0 5.89 5.685zm0-8.026a2.348 2.348 0 1 1-2.525 2.342 2.44 2.44 0 0 1 2.524-2.34z"/><path class="b" d="M121.783 101.67l-9.257-8.025v-40.8a1.585 1.585 0 0 0-1.683-1.672H94.35a27.41 27.41 0 0 0-54.7 0H23.324a1.585 1.585 0 0 0-1.683 1.672v40.8l-9.593 8.193a1.88 1.88 0 0 0-.5 1.84 1.615 1.615 0 0 0 1.514 1.17h2.014v29.427a1.585 1.585 0 0 0 1.683 1.672H59.68a1.585 1.585 0 0 0 1.683-1.672v-29.6h2.02a1.585 1.585 0 0 0 1.684-1.672 1.754 1.754 0 0 0-.842-1.5l-24.74-21.235a1.78 1.78 0 0 0-2.188 0L25.008 90.802V54.52h14.81a27.32 27.32 0 0 0 54.53 0h14.812V90.8L96.874 80.268a1.78 1.78 0 0 0-2.188 0l-25.078 21.57a1.88 1.88 0 0 0-.5 1.84 1.615 1.615 0 0 0 1.515 1.17h2.02v29.427a1.585 1.585 0 0 0 1.683 1.672h42.912a1.585 1.585 0 0 0 1.683-1.672v-29.6h2.02a1.585 1.585 0 0 0 1.684-1.672 1.488 1.488 0 0 0-.84-1.332zm-89.875 30.934v-17.222h12.96v17.222zm26.255 0h-9.93V113.71a1.585 1.585 0 0 0-1.683-1.672H30.225a1.585 1.585 0 0 0-1.683 1.672v18.894h-9.93V104.68h39.552zM38.303 83.78l20.534 17.724H17.77zm12.624-13.21a12.373 12.373 0 0 1 11.108-7.19h9.93a12.012 12.012 0 0 1 11.108 7.19 24.093 24.093 0 0 1-32.146 0zm34.84-2.678a15.515 15.515 0 0 0-13.634-7.86h-10.1a15.515 15.515 0 0 0-13.63 7.86A23.994 23.994 0 1 1 91.15 52.847a23.5 23.5 0 0 1-5.384 15.045zm10.1 15.885l20.532 17.724H75.16zM89.3 132.6v-17.218h12.957v17.222zm26.255 0h-9.93v-18.89a1.585 1.585 0 0 0-1.683-1.672H87.618a1.585 1.585 0 0 0-1.683 1.672v18.894h-9.93V104.68h39.55v27.924z"/><path class="b" d="M95.695 88.127a5.69 5.69 0 1 0 5.89 5.685 5.7 5.7 0 0 0-5.89-5.685zm0 8.026a2.348 2.348 0 1 1 2.525-2.34 2.34 2.34 0 0 1-2.525 2.34z"/></g><path class="c" d="M66.92 0c36.96 0 66.92 29.766 66.92 66.484s-29.96 66.484-66.92 66.484S0 103.2 0 66.484 29.96 0 66.92 0z"/></svg>