<svg xmlns="http://www.w3.org/2000/svg" viewBox="0 0 131.016 136.172"><defs><style>.a{opacity:0.25;fill:url(#a);}.b{fill:url(#b);}</style><radialGradient id="a" cx=".5" cy=".598" r=".545" gradientTransform="matrix(1 0 0 .918 0 .05)"><stop offset="0" stop-color="#fc7777" stop-opacity="0"/><stop offset=".714" stop-color="#e7ff33" stop-opacity="0"/><stop offset="1" stop-color="#fc5b06"/></radialGradient><linearGradient id="b" x1=".5" x2=".5" y2="1" gradientUnits="objectBoundingBox"><stop offset="0" stop-color="#ee1621"/><stop offset="1" stop-color="#ff9300"/></linearGradient></defs><path class="a" d="M65.508 0A65.508 65.508 0 1 1 0 65.508 65.508 65.508 0 0 1 65.508 0z"/><path class="b" d="M104.727 132.662v-56.16h12.65L66.202 26.74 15.03 76.502h12.65v56.16H14.27v3.51h103.868v-3.51zM23.57 73.012l42.633-41.49L108.84 72.99H23.57zm29.226 59.65v-8.768H49.44v8.768h-3.352v-14.046h10.058v14.045zm-1.666-38.6a5.262 5.262 0 1 1 5.02-5.256 5.15 5.15 0 0 1-5.023 5.252zm-3.356 3.508h6.705a5.15 5.15 0 0 1 5.018 5.256v12.28H42.756v-12.28a5.15 5.15 0 0 1 5.018-5.256zm35.195 35.092v-8.768h-3.356v8.768H76.26v-14.046h10.06v14.045zm-6.71-43.86a5.024 5.024 0 1 1 5.02 5.256 5.148 5.148 0 0 1-5.02-5.256zm-3.352 26.324v-8.767a8.38 8.38 0 1 1 16.742 0v8.767zm28.487 17.535H89.67v-14.044h3.352V106.34a12.357 12.357 0 0 0-6.333-10.9 8.578 8.578 0 0 0 1.644-1.94l1.85 1.832 2.3-2.563-2.915-2.89a9.915 9.915 0 0 0 .1-1.1 8.38 8.38 0 1 0-16.743 0 8.443 8.443 0 0 0 .1 1.01l-3.024 2.974 2.3 2.563 1.933-1.9a8.57 8.57 0 0 0 1.687 2 12.357 12.357 0 0 0-6.335 10.9v12.29h3.353v14.044h-13.4v-14.044h3.352v-15.79a8.745 8.745 0 0 0-5.512-8.207 8.87 8.87 0 0 0 2.16-5.817 8.584 8.584 0 0 0-8.37-8.768 8.618 8.618 0 0 0-8.413 8.768 8.87 8.87 0 0 0 2.16 5.816 8.745 8.745 0 0 0-5.512 8.206v15.79h3.353v14.045H31.032V76.503h70.363z"/><path class="b" d="M56.146 67.734H76.24V46.688H56.147zm3.353-8.768h5.018v5.256h-5.02zm8.37 5.256v-5.256h5.02v5.256zm5.04-8.768h-5.02V50.2h5.02zm-8.372-5.256v5.256h-5.02V50.2z"/></svg>