<svg id="noun_bedroom_254086_1_" data-name="noun_bedroom_254086 (1)" xmlns="http://www.w3.org/2000/svg" viewBox="0 0 37.35 15.307">
  <defs>
    <style>
      .cls-1 {
        fill: #ff8686;
      }
    </style>
  </defs>
  <path id="Path_470" data-name="Path 470" class="cls-1" d="M41.292,57.695H37.925v-7.96a.306.306,0,0,0-.306-.306H35.17V47.286H36.7a.307.307,0,0,0,.287-.415l-.91-3.639a.306.306,0,0,0-.3-.232H32.108a.307.307,0,0,0-.3.232l-.918,3.674a.307.307,0,0,0,.3.38h1.531v2.143H30.272a.306.306,0,0,0-.306.306v7.96h-3.98V54.633h1.531a.306.306,0,0,0,.306-.306V49.735a.306.306,0,0,0-.306-.306H26.9V45.143a.306.306,0,0,0-.306-.306H9.148a.306.306,0,0,0-.306.306v4.286H8.23a.306.306,0,0,0-.306.306v4.592a.306.306,0,0,0,.306.306H9.76v3.061h-5.2a.306.306,0,0,0,0,.612H41.292a.306.306,0,0,0,0-.612ZM32.348,43.612h3.2l.765,3.061H31.582Zm.985,3.674h1.225v2.143H33.333Zm3.98,2.755V53.1H30.578V50.041Zm-6.735,3.674h6.735v3.98H30.578ZM9.454,45.449H26.292v3.98H25.05c-.2-1.835-2.174-1.837-3.044-1.837s-2.847,0-3.044,1.837H16.784c-.2-1.835-2.174-1.837-3.044-1.837s-2.847,0-3.044,1.837H9.454Zm14.977,3.98H19.58c.174-1.123,1.334-1.225,2.426-1.225S24.258,48.306,24.432,49.429Zm-8.266,0H11.314c.174-1.123,1.334-1.225,2.426-1.225S15.992,48.306,16.166,49.429Zm-7.63.612H27.21v3.98H8.536Zm1.837,4.592h15v3.061h-15Z" transform="translate(-4.25 -43)"/>
  <path id="Path_471" data-name="Path 471" class="cls-1" d="M76.555,63.868a.306.306,0,0,0,.216-.522.316.316,0,0,0-.433,0,.306.306,0,0,0,.217.522Z" transform="translate(-46.86 -54.99)"/>
</svg>
