<svg id="listproperty" xmlns="http://www.w3.org/2000/svg" xmlns:xlink="http://www.w3.org/1999/xlink" viewBox="0 0 64.868 89.473">
  <defs>
    <style>
      .cls-1 {
        fill: url(#linear-gradient);
      }
    </style>
    <linearGradient id="linear-gradient" x1="0.5" x2="0.5" y2="1" gradientUnits="objectBoundingBox">
      <stop offset="0" stop-color="#ee1621"/>
      <stop offset="1" stop-color="#ff9300"/>
    </linearGradient>
  </defs>
  <path id="Path_124" data-name="Path 124" class="cls-1" d="M91.627,20H29.741a1.491,1.491,0,0,0-1.491,1.491v86.491a1.491,1.491,0,0,0,1.491,1.491H91.627a1.491,1.491,0,0,0,1.491-1.491V21.491A1.491,1.491,0,0,0,91.627,20Zm-1.491,86.491h-58.9V22.982h58.9ZM52.676,38.581v6.591a1.491,1.491,0,0,0,1.491,1.491H67.186a1.491,1.491,0,0,0,1.491-1.491V38.581A1.491,1.491,0,0,0,70.5,36.269l-2.237-2.237h0l-6.517-6.576a1.491,1.491,0,0,0-2.1,0l-6.487,6.487h0L50.917,36.18a1.51,1.51,0,0,0,1.76,2.4ZM55.659,35.7l5.025-5.025L65.71,35.7v7.978H55.659ZM69.751,58.369l2.55,2.55,7.277-7.277a1.5,1.5,0,1,1,2.1,2.147l-8.321,8.291a1.491,1.491,0,0,1-2.1,0l-3.609-3.609a1.491,1.491,0,0,1,2.1-2.1Zm-33.239-.91A1.491,1.491,0,0,1,38,55.968H59.938a1.491,1.491,0,1,1,0,2.982H38a1.491,1.491,0,0,1-1.491-1.476Zm0,5.786A1.491,1.491,0,0,1,38,61.754h14.48a1.491,1.491,0,1,1,0,2.982H38A1.491,1.491,0,0,1,36.511,63.245ZM81.68,71.537a1.491,1.491,0,0,1,0,2.1l-8.321,8.336a1.491,1.491,0,0,1-2.1,0l-3.609-3.609a1.491,1.491,0,0,1,2.1-2.1l2.55,2.55,7.277-7.277a1.491,1.491,0,0,1,2.1,0ZM36.511,75.369A1.491,1.491,0,0,1,38,73.878H59.938a1.491,1.491,0,0,1,0,2.982H38A1.491,1.491,0,0,1,36.511,75.369Zm0,5.786A1.491,1.491,0,0,1,38,79.664h14.48a1.491,1.491,0,0,1,0,2.982H38a1.491,1.491,0,0,1-1.491-1.506Zm0,12.124A1.491,1.491,0,0,1,38,91.787H59.938a1.491,1.491,0,1,1,0,2.982H38a1.491,1.491,0,0,1-1.491-1.506Zm0,5.786A1.491,1.491,0,0,1,38,97.573h14.48a1.491,1.491,0,1,1,0,2.982H38a1.491,1.491,0,0,1-1.491-1.521Zm44.3-7.486-3.1,3.1,3.1,3.1a1.491,1.491,0,1,1-2.1,2.1L75.6,96.768l-3.1,3.1a1.491,1.491,0,0,1-2.1-2.1l3.1-3.1-3.117-3.087a1.491,1.491,0,0,1,2.1-2.1L75.6,92.548l3.1-3.1a1.5,1.5,0,0,1,2.118,2.132Z" transform="translate(-28.25 -20)"/>
</svg>
