<svg xmlns="http://www.w3.org/2000/svg" xmlns:xlink="http://www.w3.org/1999/xlink" viewBox="0 0 212.892 150">
  <defs>
    <style>
      .cls-1 {
        fill: url(#linear-gradient);
      }
    </style>
    <linearGradient id="linear-gradient" x1="0.5" x2="0.5" y2="1" gradientUnits="objectBoundingBox">
      <stop offset="0" stop-color="#ee1621"/>
      <stop offset="1" stop-color="#ff9300"/>
    </linearGradient>
  </defs>
  <g id="Group_110" data-name="Group 110" transform="translate(-3691.175 -628)">
    <g id="Group_109" data-name="Group 109" transform="translate(3691.175 628)">
      <g id="noun_857904_cc" transform="translate(0 0)">
        <path id="Path_144" data-name="Path 144" class="cls-1" d="M117.708,8.342H14.732a5.46,5.46,0,0,0,0,10.919H117.719a5.46,5.46,0,1,0-.011-10.919Z" transform="translate(66.84 25.995)"/>
        <path id="Path_145" data-name="Path 145" class="cls-1" d="M82.314,10.4H14.809a5.46,5.46,0,1,0,0,10.919H82.325A5.46,5.46,0,1,0,82.314,10.4Z" transform="translate(67.619 46.82)"/>
        <path id="Path_146" data-name="Path 146" class="cls-1" d="M195.848,5.254H75.125a19.5,19.5,0,0,0-19.481,19.47V51.966H18.172A15.76,15.76,0,0,0,2.427,67.711v46.612a15.76,15.76,0,0,0,15.745,15.745h9.451v19.737a5.457,5.457,0,0,0,9.318,3.847l23.6-23.6h46.234a15.76,15.76,0,0,0,15.745-15.745V107.7h16.423l32.724,32.724a5.447,5.447,0,0,0,3.858,1.6,5.446,5.446,0,0,0,5.46-5.46V107.7h14.855a19.5,19.5,0,0,0,19.481-19.47V24.735A19.5,19.5,0,0,0,195.848,5.254ZM111.6,114.335a4.829,4.829,0,0,1-4.826,4.826h-48.5a5.463,5.463,0,0,0-3.858,1.6L38.532,136.64V124.62a5.462,5.462,0,0,0-5.46-5.46h-14.9a4.829,4.829,0,0,1-4.826-4.826V67.723A4.836,4.836,0,0,1,18.172,62.9H55.644V88.249a19.494,19.494,0,0,0,19.481,19.47H111.6Zm92.8-26.1a8.573,8.573,0,0,1-8.562,8.562H175.522a5.462,5.462,0,0,0-5.46,5.46v21.149L145.055,98.4a5.463,5.463,0,0,0-3.858-1.6H75.125a8.573,8.573,0,0,1-8.562-8.562v-63.5a8.573,8.573,0,0,1,8.562-8.562H195.848a8.573,8.573,0,0,1,8.562,8.562v63.5Z" transform="translate(-2.427 -5.254)"/>
      </g>
    </g>
  </g>
</svg>
