<svg xmlns="http://www.w3.org/2000/svg" xmlns:xlink="http://www.w3.org/1999/xlink" viewBox="0 0 176.422 148.1">
  <defs>
    <style>
      .cls-1 {
        fill-rule: evenodd;
        fill: url(#linear-gradient);
      }
    </style>
    <linearGradient id="linear-gradient" x1="0.5" x2="0.5" y2="1" gradientUnits="objectBoundingBox">
      <stop offset="0" stop-color="#ee1621"/>
      <stop offset="1" stop-color="#ff9300"/>
    </linearGradient>
  </defs>
  <g id="noun_138031_cc" transform="translate(89.534 -48.677)">
    <path id="Path_104" data-name="Path 104" class="cls-1" d="M185.917,169.741c.162.081-162.258,0-162.339,0-7.49.217-9.07-7.762-5.475-13.023C35.314,127.212,79.734,55.544,96.987,25.97c3.391-6.152,12.866-5.252,15.661-.084,0,.162,60.046,101.608,78.183,131.021C195.395,163.94,190.657,169.822,185.917,169.741Zm-10.7-18.3C160.7,127.6,109.855,39.152,109.855,39.018c-2.614-5.229-7.843-5.229-10.458,0C85.6,62.99,47.806,127.526,34.036,151.44c-4.118,5.394-2.614,7.843,2.614,7.843.065,0,136.08.065,135.952,0C177.831,159.283,179.326,156.677,175.216,151.44ZM99.4,130.524l-7.843-47.06H117.7l-7.843,47.06Zm5.229,5.229a7.843,7.843,0,1,1-7.843,7.843A7.845,7.845,0,0,1,104.626,135.753Z" transform="translate(-105.794 27)"/>
  </g>
</svg>
