<svg xmlns="http://www.w3.org/2000/svg" xmlns:xlink="http://www.w3.org/1999/xlink" viewBox="0 0 147.126 150">
  <defs>
    <style>
      .cls-1 {
        fill: url(#linear-gradient);
      }
    </style>
    <linearGradient id="linear-gradient" x1="0.5" x2="0.5" y2="1" gradientUnits="objectBoundingBox">
      <stop offset="0" stop-color="#ee1621"/>
      <stop offset="1" stop-color="#ff9300"/>
    </linearGradient>
  </defs>
  <g id="noun_1765452_cc" transform="translate(-36.2 -31)">
    <g id="Group_99" data-name="Group 99" transform="translate(81.028 53.989)">
      <path id="Path_91" data-name="Path 91" class="cls-1" d="M78.483,80.977V57.989A11.528,11.528,0,0,1,89.977,69.483h11.494A23.056,23.056,0,0,0,78.483,46.494V35H66.988V46.494a22.989,22.989,0,0,0,0,45.977V115.46a11.528,11.528,0,0,1-11.494-11.494H44a23.056,23.056,0,0,0,22.988,22.989v11.494H78.483V126.954a22.989,22.989,0,1,0,0-45.977ZM55.494,69.483A11.528,11.528,0,0,1,66.988,57.989V80.977A11.528,11.528,0,0,1,55.494,69.483ZM78.483,115.46V92.471a11.494,11.494,0,1,1,0,22.989Z" transform="translate(-44 -35)"/>
    </g>
    <path id="Path_92" data-name="Path 92" class="cls-1" d="M109.763,42.494A61.636,61.636,0,0,1,154.591,61.46l-14.942,6.9,37.931,25.862,3.448-45.977L165.51,55.713C151.143,40.2,131.6,31,109.763,31,72.982,31,41.947,57.437,36.2,93.069l11.494,1.724C52.292,64.908,78.729,42.494,109.763,42.494Z" transform="translate(0 0)"/>
    <path id="Path_93" data-name="Path 93" class="cls-1" d="M169.933,45.8c-4.6,30.46-31.034,52.874-62.069,52.874A61.636,61.636,0,0,1,63.037,79.708l14.943-6.9L40.048,46.949,36.6,92.926l15.517-7.471c14.368,16.092,33.908,25.287,55.747,25.287,36.782,0,67.816-26.437,73.563-62.069Z" transform="translate(1.899 70.257)"/>
  </g>
</svg>
