<svg xmlns="http://www.w3.org/2000/svg" xmlns:xlink="http://www.w3.org/1999/xlink" viewBox="0 0 147.994 148">
  <defs>
    <style>
      .cls-1 {
        fill: url(#linear-gradient);
      }
    </style>
    <linearGradient id="linear-gradient" x1="0.5" x2="0.5" y2="1" gradientUnits="objectBoundingBox">
      <stop offset="0" stop-color="#ee1621"/>
      <stop offset="1" stop-color="#ff9300"/>
    </linearGradient>
  </defs>
  <g id="noun_1668564_cc" transform="translate(156.998 -15.999)">
    <g id="Group_79" data-name="Group 79" transform="translate(-156.997 15.999)">
      <path id="Path_105" data-name="Path 105" class="cls-1" d="M7.779,120.556a9.507,9.507,0,0,0,0,13.428l16.234,16.234a9.494,9.494,0,0,0,13.427,0l42.967-42.967a9.4,9.4,0,0,0,2.671-5.612l12.029,12.027A29.591,29.591,0,0,0,132.5,150.889c.036-.012.066-.031.1-.044a3.181,3.181,0,0,0,.316-.14c.1-.048.192-.094.281-.148s.163-.112.242-.171a3.237,3.237,0,0,0,.284-.232c.025-.023.054-.039.079-.064.043-.043.074-.094.113-.14a3.079,3.079,0,0,0,.229-.28,2.876,2.876,0,0,0,.164-.26c.054-.094.105-.187.15-.284s.082-.2.117-.3.066-.2.09-.3.041-.2.056-.3.026-.215.031-.326a2.8,2.8,0,0,0,0-.311c-.007-.105-.015-.21-.03-.317s-.044-.227-.074-.34c-.016-.061-.02-.123-.041-.184-.012-.035-.031-.064-.044-.1a3.383,3.383,0,0,0-.14-.317c-.048-.1-.094-.192-.15-.284s-.109-.158-.168-.237a3.166,3.166,0,0,0-.238-.291c-.023-.025-.039-.053-.062-.077L122.659,134.3a4.677,4.677,0,0,1-.01-6.6l5.589-5.589a4.627,4.627,0,0,1,3.294-1.365h0a4.648,4.648,0,0,1,3.307,1.373l11.144,11.144c.025.025.053.041.077.064a3.237,3.237,0,0,0,.284.232c.081.059.16.12.243.173s.183.1.278.146a3.1,3.1,0,0,0,.322.143c.033.012.063.031.1.043s.069.007.1.016a3.3,3.3,0,0,0,.909.146l.013,0,.013,0a3.347,3.347,0,0,0,.89-.14c.059-.016.118-.033.178-.053a3.26,3.26,0,0,0,.789-.4c.044-.03.081-.067.123-.1a3.065,3.065,0,0,0,.334-.273,2.871,2.871,0,0,0,.222-.273c.041-.051.086-.1.123-.151a3.219,3.219,0,0,0,.421-.814c.008-.023.025-.039.033-.062a29.614,29.614,0,0,0-37.21-37.4L94.59,74.915,128.72,40.78a4.78,4.78,0,0,1,3.761-1.406l.063,0a11.421,11.421,0,0,0,10.725-5.854l9.316-16.788a3.288,3.288,0,0,0-.551-3.92l-3.425-3.425L145.98,6.76h0l-.8-.8a3.285,3.285,0,0,0-3.922-.551l-16.79,9.317a11.457,11.457,0,0,0-5.849,10.779,4.837,4.837,0,0,1-1.4,3.761L83.081,63.409,63.44,43.766A29.614,29.614,0,0,0,26.045,6.556c-.035.012-.062.03-.1.043a3.105,3.105,0,0,0-.322.143c-.1.046-.189.092-.278.146s-.163.112-.243.173a3.237,3.237,0,0,0-.284.232c-.025.023-.054.039-.077.064-.044.044-.074.1-.115.14a3.082,3.082,0,0,0-.229.28c-.061.086-.113.173-.164.261a2.883,2.883,0,0,0-.148.283c-.044.1-.082.2-.118.3s-.064.2-.089.3-.043.207-.058.312a2.888,2.888,0,0,0-.03.316,3,3,0,0,0,0,.322c.007.1.013.2.03.306a3.138,3.138,0,0,0,.077.349c.016.061.02.122.039.181.012.035.03.062.043.1a3.105,3.105,0,0,0,.143.322c.046.1.092.191.146.28s.109.158.168.235a3.266,3.266,0,0,0,.242.3c.021.023.036.049.059.072L35.891,23.15a4.679,4.679,0,0,1,.008,6.606l-5.588,5.588a4.676,4.676,0,0,1-6.606-.008L12.559,24.191c-.025-.025-.053-.039-.077-.064a3.061,3.061,0,0,0-.289-.235,2.845,2.845,0,0,0-.238-.168,2.772,2.772,0,0,0-.286-.15,2.913,2.913,0,0,0-.312-.138c-.035-.013-.066-.033-.1-.044-.061-.02-.123-.025-.184-.039-.115-.03-.229-.058-.345-.076a2.808,2.808,0,0,0-.309-.03c-.107-.007-.21-.008-.317,0s-.219.016-.327.031-.2.031-.3.054a3.119,3.119,0,0,0-.321.1c-.094.033-.184.067-.275.109a3.073,3.073,0,0,0-.309.163c-.081.048-.16.1-.235.15a3.244,3.244,0,0,0-.3.245c-.043.036-.089.062-.128.1-.023.023-.039.051-.062.076a3.425,3.425,0,0,0-.238.293,2.846,2.846,0,0,0-.168.238c-.054.089-.1.184-.148.28a3.426,3.426,0,0,0-.141.319c-.013.035-.033.064-.044.1a29.554,29.554,0,0,0,37.2,37.373L56.355,74.915a9.389,9.389,0,0,0-5.611,2.674Zm103.277-19.873.007.007,0,0c.059.059.13.1.192.158a3.451,3.451,0,0,0,.3.242,3.239,3.239,0,0,0,3.152.283,23.034,23.034,0,0,1,31.573,22.866l-6.785-6.785a11.187,11.187,0,0,0-7.954-3.3h-.007a11.163,11.163,0,0,0-7.944,3.291L118,123.038a11.266,11.266,0,0,0,.01,15.907l6.78,6.78a23.03,23.03,0,0,1-22.9-31.488,3.239,3.239,0,0,0,.867-.61l2.777-2.8a3.289,3.289,0,1,0-4.667-4.636L98.91,108.17,84.96,94.222l.049-.049a8.879,8.879,0,0,0,1.256-10.934l3.672-3.672Zm10.815-66.764a11.427,11.427,0,0,0,3.315-8.872,4.853,4.853,0,0,1,2.48-4.568l14.621-8.114,3.343,3.343L137.516,30.33a4.814,4.814,0,0,1-4.568,2.48l-.064,0a11.391,11.391,0,0,0-8.814,3.322L81.8,78.406l-1.1-1.1-1.1-1.1L85.4,70.388l0,0s0,0,0,0ZM18.964,50.982a22.9,22.9,0,0,1-6.691-17.775l6.78,6.78A11.259,11.259,0,0,0,34.96,40l5.588-5.589A11.26,11.26,0,0,0,40.539,18.5l-6.785-6.783a23.022,23.022,0,0,1,23,31.208,3.31,3.31,0,0,0-.437.358l-2.779,2.8A3.289,3.289,0,1,0,58.2,50.717l1.442-1.45L78.43,68.058l-3.67,3.67a8.81,8.81,0,0,0-10.944,1.266l-.041.041L47.551,56.81a3.282,3.282,0,0,0-3.606-.773A23.017,23.017,0,0,1,18.964,50.982Zm40.56,31.261L61.678,84.4a3.287,3.287,0,0,0,4.667-4.629l2.13-2.13a2.349,2.349,0,0,1,3.254,0l8.632,8.633a2.3,2.3,0,0,1-.01,3.261l-2.118,2.118-5.377-5.377a3.289,3.289,0,0,0-4.65,4.652l7.553,7.551a2.923,2.923,0,0,1,0,4.126L32.789,145.566a2.988,2.988,0,0,1-4.126,0L12.431,129.334a2.925,2.925,0,0,1,0-4.128L55.4,82.243A2.985,2.985,0,0,1,59.524,82.243Z" transform="translate(-5.003 -4.999)"/>
      <path id="Path_106" data-name="Path 106" class="cls-1" d="M15.6,87.591a3.276,3.276,0,0,0,2.325-.964l6.773-6.775a3.289,3.289,0,0,0-4.65-4.652L13.27,81.975A3.291,3.291,0,0,0,15.6,87.591Z" transform="translate(-0.296 39.62)"/>
      <path id="Path_107" data-name="Path 107" class="cls-1" d="M44.17,68.88,18.229,94.823l4.65,4.65L48.82,73.531a3.288,3.288,0,0,0-4.65-4.65Z" transform="translate(3.521 35.547)"/>
      <path id="Path_108" data-name="Path 108" class="cls-1" d="M23.369,85.552a3.285,3.285,0,0,0,2.324-.96L45.447,64.86a2.526,2.526,0,0,1,3.567.01l.6.6a2.475,2.475,0,0,1-.051,3.521l4.7,4.6a9.044,9.044,0,0,0,0-12.776l-.6-.6A9.112,9.112,0,0,0,40.8,60.205L21.045,79.937a3.288,3.288,0,0,0,2.324,5.616Z" transform="translate(4.714 28.868)"/>
    </g>
  </g>
</svg>
