<svg xmlns="http://www.w3.org/2000/svg" xmlns:xlink="http://www.w3.org/1999/xlink" viewBox="0 0 142.523 148">
  <defs>
    <style>
      .cls-1 {
        fill: url(#linear-gradient);
      }
    </style>
    <linearGradient id="linear-gradient" x1="0.5" x2="0.5" y2="1" gradientUnits="objectBoundingBox">
      <stop offset="0" stop-color="#ee1621"/>
      <stop offset="1" stop-color="#ff9300"/>
    </linearGradient>
  </defs>
  <g id="noun_427332_cc" transform="translate(-2.301 -0.435)">
    <path id="Path_109" data-name="Path 109" class="cls-1" d="M72.236,9.648a.575.575,0,0,1,0,1.046L59.085,19.66a.671.671,0,0,1-1.046-.6V14.28a47.5,47.5,0,0,0-27.795,85.925l-4.931,6.725A55.844,55.844,0,0,1,58.039,5.912V1.13a.719.719,0,0,1,1.046-.6ZM103.169,122.77l22.415,22.415a11.457,11.457,0,0,0,15.99,0h0a11.457,11.457,0,0,0,0-15.99L119.158,106.78a11.207,11.207,0,0,0-11.955-2.54l-6.575-6.575A55.406,55.406,0,0,0,113.778,61.8,56.13,56.13,0,0,0,90.765,16.671L85.834,23.4A47.5,47.5,0,0,1,57.89,109.321h0v-4.931a.719.719,0,0,0-1.046-.6l-13.15,8.966a.575.575,0,0,0,0,1.046l13.15,8.966a.671.671,0,0,0,1.046-.6V117.39h0A55.507,55.507,0,0,0,93.9,104.24l6.575,6.575A11.807,11.807,0,0,0,103.169,122.77ZM58.039,25.488A36.163,36.163,0,1,1,21.876,61.651,36.192,36.192,0,0,1,58.039,25.488Zm0,11.506H56.694c-1.494,0-1.644.3-1.793,1.793V40.73c0,1.943,0,1.943-1.943,2.54-4.483,1.644-7.322,4.782-7.621,9.564-.3,4.334,1.943,7.322,5.529,9.414a59.151,59.151,0,0,0,7.023,3.138,14.189,14.189,0,0,1,2.54,1.494,3.5,3.5,0,0,1-.9,6.127,9.343,9.343,0,0,1-4.483.6,19.261,19.261,0,0,1-6.874-2.092c-1.2-.6-1.644-.448-2.092.9-.3,1.2-.747,2.391-1.046,3.586-.448,1.644-.3,1.943,1.2,2.69a22.181,22.181,0,0,0,6.127,1.793c1.644.3,1.644.3,1.793,2.092v2.391c0,1.046.448,1.494,1.494,1.644h3.437a1.412,1.412,0,0,0,1.494-1.494V81.974a1.8,1.8,0,0,1,1.494-1.943,10.785,10.785,0,0,0,5.977-3.885,10.986,10.986,0,0,0-3.437-16.587,44.783,44.783,0,0,0-6.127-2.69A9.135,9.135,0,0,1,55.2,54.926c-1.943-1.644-1.644-4.184.747-5.081a4.773,4.773,0,0,1,2.092-.448,14.856,14.856,0,0,1,7.621,1.494c1.2.6,1.644.448,1.943-.9.448-1.345.747-2.69,1.2-4.035a1.436,1.436,0,0,0-.9-1.943,17.8,17.8,0,0,0-4.782-1.494c-2.242-.3-2.242-.3-2.242-2.54C61.177,36.994,61.177,36.994,58.039,36.994Z" transform="translate(0 0)"/>
  </g>
</svg>
