<svg xmlns="http://www.w3.org/2000/svg" xmlns:xlink="http://www.w3.org/1999/xlink" viewBox="0 0 163.304 150">
  <defs>
    <style>
      .cls-1 {
        fill: url(#linear-gradient);
      }
    </style>
    <linearGradient id="linear-gradient" x1="0.5" x2="0.5" y2="1" gradientUnits="objectBoundingBox">
      <stop offset="0" stop-color="#ee1621"/>
      <stop offset="1" stop-color="#ff9300"/>
    </linearGradient>
  </defs>
  <g id="noun_216058_cc" transform="translate(-5 -8.665)">
    <path id="Path_136" data-name="Path 136" class="cls-1" d="M54.659,70.693c-14.173,0-25.883-15.363-27.765-35.309H23.041C25.182,58.1,38.52,75.6,54.659,75.6S84.139,58.1,86.278,35.384H82.426C80.543,55.33,68.834,70.693,54.659,70.693Z" transform="translate(14.693 21.761)"/>
    <path id="Path_137" data-name="Path 137" class="cls-1" d="M124.111,99.665l-.078.392-.192.994-.715.719-.292.294-3.569,3.56a6.554,6.554,0,0,1-9.217-.054l-7.73-7.757a6.531,6.531,0,0,1,.018-9.25l3.531-3.516.281-.281.729-.729,1.016-.189.376-.069.423-.082,11.057-11a18.993,18.993,0,0,1-18.088-16.424,41.753,41.753,0,0,0-4.514-.909c-.073-.011-.149-.016-.223-.031-.59-.074-1.185-.145-1.784-.2,0,.06-.02.122-.022.183-.007.176-.038.343-.06.523a8.588,8.588,0,0,1-.869,2.889c-3.123,7.858-13.22,22.749-19.166,31.2L73.8,72.36a10.267,10.267,0,0,0,4.188-4.075,8.115,8.115,0,0,0,1.11-3.939,25.39,25.39,0,0,1-8.965,1.967c-.259,0-.517-.011-.775-.024-.259.013-.515.024-.775.024a25.39,25.39,0,0,1-8.965-1.967,8.1,8.1,0,0,0,1.11,3.939,10.267,10.267,0,0,0,4.188,4.075L63.69,89.922c-5.948-8.45-16.045-23.341-19.166-31.2a8.514,8.514,0,0,1-.873-2.889c-.022-.18-.053-.347-.06-.523,0-.06-.018-.122-.02-.183-.6.054-1.2.125-1.785.2-.076.015-.151.02-.223.031A42.47,42.47,0,0,0,5,97.419c0,23.461,19.021,23.4,42.48,23.4H91.228c23.459,0,42.478.054,42.478-23.4a42.552,42.552,0,0,0-.611-7.047l-8.905,8.869Z" transform="translate(0 37.841)"/>
    <path id="Path_138" data-name="Path 138" class="cls-1" d="M24.306,52.42H90.555a4.672,4.672,0,1,0,0-9.344H89.283A31.847,31.847,0,0,0,71.812,14.658l-.949,5.383-1.691,9.582a2.44,2.44,0,1,1-4.806-.847l1.86-10.56,1.152-6.537a6.39,6.39,0,0,0-5.429-3.014h-9.04a6.4,6.4,0,0,0-5.427,3.014l1.152,6.537L50.5,28.776a2.44,2.44,0,0,1-1.981,2.829,2.266,2.266,0,0,1-.425.038,2.442,2.442,0,0,1-2.4-2.019L44,20.043l-.949-5.382A31.835,31.835,0,0,0,25.578,43.076H24.306a4.672,4.672,0,0,0,0,9.344Z" transform="translate(11.92)"/>
    <path id="Path_139" data-name="Path 139" class="cls-1" d="M81.755,65.056l-2.382.582-.348.087-.258.256L66,78.69l-1.423.272-.394.073-.279.281-3.538,3.522a3.2,3.2,0,0,0-.011,4.529l7.735,7.762a3.22,3.22,0,0,0,4.529.022l3.542-3.535.281-.283.076-.392.274-1.424L89.55,76.808l.258-.256.087-.35.6-2.406Z" transform="translate(44.321 45.927)"/>
    <path id="Path_140" data-name="Path 140" class="cls-1" d="M82.762,57.7l.913.916.922-.909.764-.753c1.1,1.475,2.649,4.3.481,6.454-.76.758-3.019,3-5.723,5.683l7.871,7.875,5.588-5.6a5.8,5.8,0,0,1,2.6-.875,1.3,1.3,0,0,1,1.012.368c2.582,2.582.464,6.251.445,6.289l-.51.867.709.711,1.838,1.843.829.833.911-.742c.259-.21,6.345-5.233,6.528-11.718.174-6.118-1.762-8.671-1.983-8.943l-.045-.053-.045-.045L98.783,52.8l-.229-.227-.307-.1-5.342-1.649-.691-.695,1.04-1.029.925-.916-.92-.924-2.892-2.909a2.634,2.634,0,0,0-1.874-.778,2.6,2.6,0,0,0-1.856.766l-6.761,6.735a2.635,2.635,0,0,0,0,3.729Z" transform="translate(60.352 28.429)"/>
    <path id="Path_141" data-name="Path 141" class="cls-1" d="M120.485,96.923,90.447,66.886A15.712,15.712,0,0,0,76.368,45.67l-2.947,2.945,7.323,7.325,0,6.086-4.375,4.364H70.3l-7.327-7.321-2.947,2.947A15.713,15.713,0,0,0,81.233,76.1l30.038,30.042a6.516,6.516,0,0,0,9.214-9.216Zm-6.83,2.386a3.145,3.145,0,0,1,4.453-.011,3.151,3.151,0,1,1-4.453.011Z" transform="translate(44.812 30.138)"/>
  </g>
</svg>
